<svg width="200" height="200" viewBox="0 0 200 200" fill="none" xmlns="http://www.w3.org/2000/svg">
<g clip-path="url(#clip0_11_4)">
<g filter="url(#filter0_d_11_4)">
<path d="M104.732 156.638C124.127 156.638 133.824 148.362 133.824 131.81C133.824 124.788 130.146 118.853 122.789 114.004C117.439 110.326 110.082 106.397 100.72 102.217C91.5239 97.8701 84.5854 94.4426 79.904 91.9347C75.3898 89.4268 70.1232 85.9158 64.1042 81.4016C52.5679 72.5403 46.7998 61.5056 46.7998 48.2973C46.7998 35.0891 51.8991 24.1379 62.0979 15.4439C72.4639 6.58263 86.4245 2.15201 103.98 2.15201C121.535 2.15201 140.261 7.75298 160.157 18.9549C160.157 30.9928 158.903 44.0339 156.395 58.0781C151.045 59.75 143.103 60.586 132.57 60.586L125.297 30.742C119.111 28.9029 112.339 27.9833 104.983 27.9833C97.6265 27.9833 91.9419 29.5717 87.9293 32.7484C83.9166 35.925 81.9103 40.69 81.9103 47.0434C81.9103 53.2295 85.0034 58.8305 91.1895 63.8463C97.5429 68.6949 105.15 73.2091 114.011 77.3889C122.873 81.4016 128.975 84.2438 132.319 85.9158C135.663 87.5877 139.926 90.0956 145.109 93.4395C150.292 96.7833 154.221 99.96 156.896 102.969C163.751 110.995 167.179 119.94 167.179 129.804C167.179 147.192 161.411 160.568 149.874 169.93C138.338 179.293 123.291 183.975 104.732 183.975C94.8678 183.975 84.0002 182.303 72.1295 178.959C60.426 175.448 50.478 171.017 42.2855 165.667C42.6199 155.468 43.9575 141.675 46.2982 124.287C52.9859 122.949 61.0112 122.28 70.374 122.28L75.6406 152.375C84.8362 155.217 94.5334 156.638 104.732 156.638Z" fill="#0013C2"/>
</g>
</g>
<defs>
<filter id="filter0_d_11_4" x="30.2855" y="2.15201" width="136.893" height="196.349" filterUnits="userSpaceOnUse" color-interpolation-filters="sRGB">
<feFlood flood-opacity="0" result="BackgroundImageFix"/>
<feColorMatrix in="SourceAlpha" type="matrix" values="0 0 0 0 0 0 0 0 0 0 0 0 0 0 0 0 0 0 127 0" result="hardAlpha"/>
<feOffset dx="-12" dy="14.5263"/>
<feComposite in2="hardAlpha" operator="out"/>
<feColorMatrix type="matrix" values="0 0 0 0 0 0 0 0 0 0 0 0 0 0 0 0 0 0 1 0"/>
<feBlend mode="normal" in2="BackgroundImageFix" result="effect1_dropShadow_11_4"/>
<feBlend mode="normal" in="SourceGraphic" in2="effect1_dropShadow_11_4" result="shape"/>
</filter>
<clipPath id="clip0_11_4">
<rect width="200" height="200" fill="white"/>
</clipPath>
</defs>
</svg>
